<?xml version="1.0" ?><svg viewBox="0 0 24 24" xmlns="http://www.w3.org/2000/svg"><defs><style>.cls-1{fill:none;}.cls-2{fill:#7425C7;}.cls-3{fill:#fff;}</style></defs><title/><g data-name="Layer 2" id="Layer_2"><g data-name="Layer 2" id="Layer_2-2"><g id="Phone"><rect class="cls-1" height="24" width="24"/><path class="cls-2" d="M1,12C1,4,4,1,12,1S23,4,23,12,20,23,12,23,1,20,1,12"/><path class="cls-3" d="M11.28,11.7v-1a1.08,1.08,0,0,1,1.08-1.08h1.56A1.08,1.08,0,0,0,15,8.56V7.08A1.08,1.08,0,0,0,13.92,6H13a4,4,0,0,0-4,4V14a4,4,0,0,0,4,4h.89A1.08,1.08,0,0,0,15,16.92V15.44a1.08,1.08,0,0,0-1.08-1.08H12.36a1.08,1.08,0,0,1-1.08-1.08V11.7Z"/></g></g></g></svg>