<?xml version="1.0" ?><svg enable-background="new 0 0 32 32" version="1.1" viewBox="0 0 32 32" xml:space="preserve" xmlns="http://www.w3.org/2000/svg" xmlns:xlink="http://www.w3.org/1999/xlink"><g id="Layer_4_copy"><g><rect height="28.75" width="28.75" x="1.625" y="1.625"/><polygon fill="#FFFFFF" opacity="0.22" points="1.625,1.625 14.667,1.625 1.625,14.347   "/></g></g><g id="Official_copy_3"><linearGradient gradientUnits="userSpaceOnUse" id="SVGID_1_" x1="16" x2="16" y1="24.1567" y2="7.8433"><stop offset="0" style="stop-color:#7425C7"/><stop offset="1" style="stop-color:#7c43c7"/></linearGradient><path d="M22.118,7.843H9.882c-1.152,0-2.039,0.888-2.039,2.039v12.235c0,1.151,0.888,2.039,2.039,2.039   h12.235c1.151,0,2.039-0.888,2.039-2.039V9.882C24.157,8.731,23.269,7.843,22.118,7.843z M16.012,12.795   c1.809,0,3.275,1.421,3.275,3.174c0,1.752-1.466,3.174-3.275,3.174c-1.808,0-3.274-1.422-3.274-3.174   C12.738,14.216,14.205,12.795,16.012,12.795z M22.118,21.608c0,0.357-0.153,0.51-0.51,0.51H10.392c-0.356,0-0.51-0.152-0.51-0.51   v-7.137l1.271,0.276c-0.136,0.444-0.211,0.913-0.211,1.399c0,2.711,2.271,4.911,5.069,4.911c2.8,0,5.069-2.2,5.069-4.911   c0-0.487-0.074-0.956-0.21-1.399l1.246-0.276V21.608z M22.118,12.431c0,0.282-0.228,0.51-0.51,0.51h-2.039   c-0.282,0-0.51-0.228-0.51-0.51v-2.039c0-0.282,0.228-0.51,0.51-0.51h2.039c0.282,0,0.51,0.228,0.51,0.51V12.431z" fill="url(#SVGID_1_)"/></g></svg>