<?xml version="1.0" ?><svg enable-background="new 0 0 32 32" version="1.1" viewBox="0 0 32 32" xml:space="preserve" xmlns="http://www.w3.org/2000/svg" xmlns:xlink="http://www.w3.org/1999/xlink"><g id="Layer_4_copy"><g><rect height="28.75" width="28.75" x="1.625" y="1.625"/><polygon fill="#FFFFFF" opacity="0.22" points="1.625,1.625 14.667,1.625 1.625,14.347   "/></g></g><g id="Official_copy_3"><g><linearGradient gradientUnits="userSpaceOnUse" id="SVGID_1_" x1="16" x2="16" y1="22.7996" y2="9.2004"><stop offset="0" style="stop-color:#7425C7"/><stop offset="1" style="stop-color:#7c43c7"/></linearGradient><path d="M24.882,12.135c0,0-0.177-1.333-0.72-1.92c-0.69-0.769-1.462-0.774-1.816-0.818    C19.809,9.2,16.004,9.2,16.004,9.2h-0.009c0,0-3.805,0-6.341,0.197C9.3,9.441,8.528,9.445,7.838,10.215    c-0.543,0.587-0.72,1.92-0.72,1.92s-0.181,1.564-0.181,3.129v1.466c0,1.566,0.181,3.13,0.181,3.13s0.177,1.333,0.72,1.919    c0.69,0.769,1.595,0.746,1.999,0.827C11.287,22.754,16,22.8,16,22.8s3.809-0.007,6.346-0.201c0.354-0.045,1.126-0.05,1.816-0.819    c0.543-0.586,0.72-1.919,0.72-1.919s0.181-1.565,0.181-3.13v-1.466C25.063,13.699,24.882,12.135,24.882,12.135z M13.736,19.4v-6.8    l5.666,3.4L13.736,19.4z" fill="url(#SVGID_1_)"/></g></g></svg>